<svg width="54" height="36" viewBox="0 0 54 36" fill="none" xmlns="http://www.w3.org/2000/svg">
<path d="M41.0312 0.40625C44.9896 0.40625 47.9792 1.42708 50 3.46875C52.0417 5.48958 53.0625 8.73958 53.0625 13.2188V36H43.5V15.5938C43.5 13.0938 43.0729 11.2083 42.2188 9.9375C41.3646 8.66667 40.0417 8.03125 38.25 8.03125C35.7292 8.03125 33.9375 8.9375 32.875 10.75C31.8125 12.5417 31.2812 15.1146 31.2812 18.4688V36H21.75V15.5938C21.75 13.9271 21.5625 12.5312 21.1875 11.4062C20.8125 10.2812 20.2396 9.4375 19.4688 8.875C18.6979 8.3125 17.7083 8.03125 16.5 8.03125C14.7292 8.03125 13.3333 8.47917 12.3125 9.375C11.3125 10.25 10.5938 11.5521 10.1562 13.2812C9.73958 14.9896 9.53125 17.0833 9.53125 19.5625V36H0V1.0625H7.28125L8.5625 5.53125H9.09375C9.80208 4.32292 10.6875 3.34375 11.75 2.59375C12.8333 1.84375 14.0208 1.29167 15.3125 0.9375C16.6042 0.583333 17.9167 0.40625 19.25 0.40625C21.8125 0.40625 23.9792 0.822917 25.75 1.65625C27.5417 2.48958 28.9167 3.78125 29.875 5.53125H30.7188C31.7604 3.73958 33.2292 2.4375 35.125 1.625C37.0417 0.8125 39.0104 0.40625 41.0312 0.40625Z" fill="#3F3F46"/>
</svg>
