<svg width="64" height="64" viewBox="0 0 64 64" fill="none" xmlns="http://www.w3.org/2000/svg">
<path d="M0 10C0 4.47715 4.47715 0 10 0H54C59.5228 0 64 4.47715 64 10V54C64 59.5228 59.5228 64 54 64H10C4.47715 64 0 59.5228 0 54V10Z" fill="#FAFAFA"/>
<path d="M45.6816 17.6309C49.3926 17.6309 52.1953 18.5879 54.0898 20.502C56.0039 22.3965 56.9609 25.4434 56.9609 29.6426V51H47.9961V31.8691C47.9961 29.5254 47.5957 27.7578 46.7949 26.5664C45.9941 25.375 44.7539 24.7793 43.0742 24.7793C40.7109 24.7793 39.0312 25.6289 38.0352 27.3281C37.0391 29.0078 36.541 31.4199 36.541 34.5645V51H27.6055V31.8691C27.6055 30.3066 27.4297 28.998 27.0781 27.9434C26.7266 26.8887 26.1895 26.0977 25.4668 25.5703C24.7441 25.043 23.8164 24.7793 22.6836 24.7793C21.0234 24.7793 19.7148 25.1992 18.7578 26.0391C17.8203 26.8594 17.1465 28.0801 16.7363 29.7012C16.3457 31.3027 16.1504 33.2656 16.1504 35.5898V51H7.21484V18.2461H14.041L15.2422 22.4355H15.7402C16.4043 21.3027 17.2344 20.3848 18.2305 19.6816C19.2461 18.9785 20.3594 18.4609 21.5703 18.1289C22.7812 17.7969 24.0117 17.6309 25.2617 17.6309C27.6641 17.6309 29.6953 18.0215 31.3555 18.8027C33.0352 19.584 34.3242 20.7949 35.2227 22.4355H36.0137C36.9902 20.7559 38.3672 19.5352 40.1445 18.7734C41.9414 18.0117 43.7871 17.6309 45.6816 17.6309Z" fill="#3F3F46"/>
</svg>
