<svg width="249" height="50" viewBox="0 0 249 50" fill="none" xmlns="http://www.w3.org/2000/svg">
<path d="M41.0312 13.4062C44.9896 13.4062 47.9792 14.4271 50 16.4688C52.0417 18.4896 53.0625 21.7396 53.0625 26.2188V49H43.5V28.5938C43.5 26.0938 43.0729 24.2083 42.2188 22.9375C41.3646 21.6667 40.0417 21.0312 38.25 21.0312C35.7292 21.0312 33.9375 21.9375 32.875 23.75C31.8125 25.5417 31.2812 28.1146 31.2812 31.4688V49H21.75V28.5938C21.75 26.9271 21.5625 25.5312 21.1875 24.4062C20.8125 23.2812 20.2396 22.4375 19.4688 21.875C18.6979 21.3125 17.7083 21.0312 16.5 21.0312C14.7292 21.0312 13.3333 21.4792 12.3125 22.375C11.3125 23.25 10.5938 24.5521 10.1562 26.2812C9.73958 27.9896 9.53125 30.0833 9.53125 32.5625V49H0V14.0625H7.28125L8.5625 18.5312H9.09375C9.80208 17.3229 10.6875 16.3438 11.75 15.5938C12.8333 14.8438 14.0208 14.2917 15.3125 13.9375C16.6042 13.5833 17.9167 13.4062 19.25 13.4062C21.8125 13.4062 23.9792 13.8229 25.75 14.6562C27.5417 15.4896 28.9167 16.7812 29.875 18.5312H30.7188C31.7604 16.7396 33.2292 15.4375 35.125 14.625C37.0417 13.8125 39.0104 13.4062 41.0312 13.4062ZM77.1875 13.3438C81.875 13.3438 85.4688 14.3646 87.9688 16.4062C90.4688 18.4479 91.7188 21.5521 91.7188 25.7188V49H85.0625L83.2188 44.25H82.9688C81.9688 45.5 80.9479 46.5208 79.9062 47.3125C78.8646 48.1042 77.6667 48.6875 76.3125 49.0625C74.9583 49.4375 73.3125 49.625 71.375 49.625C69.3125 49.625 67.4583 49.2292 65.8125 48.4375C64.1875 47.6458 62.9062 46.4375 61.9688 44.8125C61.0312 43.1667 60.5625 41.0833 60.5625 38.5625C60.5625 34.8542 61.8646 32.125 64.4688 30.375C67.0729 28.6042 70.9792 27.625 76.1875 27.4375L82.25 27.25V25.7188C82.25 23.8854 81.7708 22.5417 80.8125 21.6875C79.8542 20.8333 78.5208 20.4062 76.8125 20.4062C75.125 20.4062 73.4688 20.6458 71.8438 21.125C70.2188 21.6042 68.5938 22.2083 66.9688 22.9375L63.8125 16.5C65.6667 15.5208 67.7396 14.75 70.0312 14.1875C72.3438 13.625 74.7292 13.3438 77.1875 13.3438ZM82.25 32.8125L78.5625 32.9375C75.4792 33.0208 73.3333 33.5729 72.125 34.5938C70.9375 35.6146 70.3438 36.9583 70.3438 38.625C70.3438 40.0833 70.7708 41.125 71.625 41.75C72.4792 42.3542 73.5938 42.6562 74.9688 42.6562C77.0104 42.6562 78.7292 42.0521 80.125 40.8438C81.5417 39.6354 82.25 37.9167 82.25 35.6875V32.8125ZM121.062 13.4062C121.542 13.4062 122.094 13.4375 122.719 13.5C123.365 13.5417 123.885 13.6042 124.281 13.6875L123.562 22.625C123.25 22.5208 122.802 22.4479 122.219 22.4062C121.656 22.3438 121.167 22.3125 120.75 22.3125C119.521 22.3125 118.323 22.4688 117.156 22.7812C116.01 23.0938 114.979 23.6042 114.062 24.3125C113.146 25 112.417 25.9167 111.875 27.0625C111.354 28.1875 111.094 29.5729 111.094 31.2188V49H101.562V14.0625H108.781L110.188 19.9375H110.656C111.344 18.75 112.198 17.6667 113.219 16.6875C114.26 15.6875 115.438 14.8958 116.75 14.3125C118.083 13.7083 119.521 13.4062 121.062 13.4062ZM140.156 0.375V22.125C140.156 23.4375 140.104 24.75 140 26.0625C139.896 27.375 139.781 28.6875 139.656 30H139.781C140.427 29.0833 141.083 28.1771 141.75 27.2812C142.438 26.3854 143.167 25.5208 143.938 24.6875L153.719 14.0625H164.469L150.594 29.2188L165.312 49H154.312L144.25 34.8438L140.156 38.125V49H130.625V0.375H140.156ZM179.844 49H170.312V0.375H179.844V49ZM204.281 13.4062C207.51 13.4062 210.292 14.0312 212.625 15.2812C214.958 16.5104 216.76 18.3021 218.031 20.6562C219.302 23.0104 219.938 25.8854 219.938 29.2812V33.9062H197.406C197.51 36.5938 198.312 38.7083 199.812 40.25C201.333 41.7708 203.438 42.5312 206.125 42.5312C208.354 42.5312 210.396 42.3021 212.25 41.8438C214.104 41.3854 216.01 40.6979 217.969 39.7812V47.1562C216.24 48.0104 214.427 48.6354 212.531 49.0312C210.656 49.4271 208.375 49.625 205.688 49.625C202.188 49.625 199.083 48.9792 196.375 47.6875C193.688 46.3958 191.573 44.4271 190.031 41.7812C188.51 39.1354 187.75 35.8021 187.75 31.7812C187.75 27.6979 188.438 24.3021 189.812 21.5938C191.208 18.8646 193.146 16.8229 195.625 15.4688C198.104 14.0938 200.99 13.4062 204.281 13.4062ZM204.344 20.1875C202.49 20.1875 200.948 20.7812 199.719 21.9688C198.51 23.1562 197.812 25.0208 197.625 27.5625H211C210.979 26.1458 210.719 24.8854 210.219 23.7812C209.74 22.6771 209.01 21.8021 208.031 21.1562C207.073 20.5104 205.844 20.1875 204.344 20.1875ZM242.406 42.0312C243.448 42.0312 244.458 41.9271 245.438 41.7188C246.438 41.5104 247.427 41.25 248.406 40.9375V48.0312C247.385 48.4896 246.115 48.8646 244.594 49.1562C243.094 49.4688 241.448 49.625 239.656 49.625C237.573 49.625 235.698 49.2917 234.031 48.625C232.385 47.9375 231.083 46.7604 230.125 45.0938C229.188 43.4062 228.719 41.0625 228.719 38.0625V21.2188H224.156V17.1875L229.406 14L232.156 6.625H238.25V14.0625H248.031V21.2188H238.25V38.0625C238.25 39.3958 238.625 40.3958 239.375 41.0625C240.146 41.7083 241.156 42.0312 242.406 42.0312Z" fill="#3F3F46"/>
</svg>
